<svg version="1.1" xmlns="http://www.w3.org/2000/svg" xmlns:xlink="http://www.w3.org/1999/xlink" x="0px" y="0px"
	 viewBox="0 0 600 600" style="enable-background:new 0 0 600 600;" xml:space="preserve">

<g id="objects">
	<g>
		<linearGradient id="SVGID_1_" gradientUnits="userSpaceOnUse" x1="334.8591" y1="359.9089" x2="147.6001" y2="202.7767">
			<stop  offset="0" style="stop-color:#F6BC21"/>
			<stop  offset="1" style="stop-color:#E00048"/>
		</linearGradient>
		<path style="fill:url(#SVGID_1_);" d="M334.44,519.37c-11.06,2.59-22.59,3.96-34.44,3.96c-83.16,0-150.56-67.4-150.56-150.56
			c0-120.99,121.55-133.44,132.3-296.1c20.16,17.64,38.38,35.68,54.74,53.86c35.73,44.67-65.852,152.299-87.118,243.86
			C234.928,436.535,272.51,530.18,334.44,519.37z"/>
		
			<linearGradient id="SVGID_00000027573516408884153110000009720160891458397623_" gradientUnits="userSpaceOnUse" x1="424.2184" y1="388.4373" x2="251.432" y2="286.5376">
			<stop  offset="0.0407" style="stop-color:#F6BC21"/>
			<stop  offset="1" style="stop-color:#E00048"/>
		</linearGradient>
		<path style="fill:url(#SVGID_00000027573516408884153110000009720160891458397623_);" d="M424.21,457.87
			c-20.87,30.43-52.64,52.8-89.69,61.49c-0.03,0-0.05,0.01-0.08,0.01c-61.93,10.81-109.79-44.56-92.76-144.98
			c17.04-100.38,130.53-199.19,94.8-243.86c14.76,16.4,28,32.92,39.77,49.35c11.33,18.29,18.964,28.411,14.886,71.641
			c-4.44,47.064-24.846,95.174-44.304,136.457C324.975,434.35,387.02,511.5,424.21,457.87z"/>
		
			<linearGradient id="SVGID_00000176042665656343077400000011966764512688477577_" gradientUnits="userSpaceOnUse" x1="454.7377" y1="403.8277" x2="323.5973" y2="293.9533">
			<stop  offset="0" style="stop-color:#F6BC21"/>
			<stop  offset="1" style="stop-color:#E00048"/>
		</linearGradient>
		<path style="fill:url(#SVGID_00000176042665656343077400000011966764512688477577_);" d="M450.56,372.77
			c0,31.53-9.69,60.79-26.26,84.97c-0.03,0.04-0.06,0.09-0.09,0.13c-37.19,53.63-127.88,15.5-88.01-72.85
			c18.77-41.6,45.46-94.54,51.06-141.48c2.79-23.43,0.32-45.37-11.01-63.66C427.13,250.92,450.56,320.45,450.56,372.77z"/>
	</g>
</g>
</svg>
